<svg width="46" height="48" fill="none" xmlns="http://www.w3.org/2000/svg"><path fill="#81B3D2" d="M0 0h46v48H0z"/><path d="M25.3059 17.144c1.5859-.496 2.8085.27 3.3666 1.179.6334-.231 1.2527-.481 1.8927-.708-.0123.6864-.3071 1.3325-.8066 1.768.6447.17 1.2273-.491 1.2273-.491-.159 1-.9468 1.788-1.471 2.024-.2175 6.75-2.9883 11.217-9.4843 11.082h-.4197c-.3859 0-3.9191-.46-4.6099-1.887 2.1374.196 3.664-.422 4.4169-1.177-.9035-.3-2.5214-.477-2.8037-2.95.3284.106.5308.228 1.12.119-1.1295-.856-2.3822-1.573-2.3125-3.773.2682.328 1.0042.536 1.2612.472-.6617-.241-1.8542-3.36-.8415-4.952 1.7111 1.854 3.5153 3.606 6.7313 3.773.1958-2.293 1.0702-3.83 2.7332-4.479z" fill="#fff"/></svg>